<?xml version="1.0" standalone="no"?>
<!DOCTYPE svg PUBLIC "-//W3C//DTD SVG 20010904//EN"
 "http://www.w3.org/TR/2001/REC-SVG-20010904/DTD/svg10.dtd">
<svg version="1.0" xmlns="http://www.w3.org/2000/svg"
 width="981.000000pt" height="960.000000pt" viewBox="0 0 981.000000 960.000000"
 preserveAspectRatio="xMidYMid meet">

<g transform="translate(0.000000,960.000000) scale(0.100000,-0.100000)"
fill="#000000" stroke="none">
<path d="M4815 9594 c-11 -2 -45 -9 -75 -15 -71 -15 -162 -57 -226 -105 -85
-64 -4295 -3791 -4352 -3852 -29 -32 -70 -93 -92 -138 -124 -250 -77 -538 119
-734 199 -198 481 -244 736 -120 74 36 223 165 2023 1760 1069 946 1947 1720
1951 1720 5 0 882 -774 1951 -1720 1542 -1364 1957 -1726 2009 -1754 187 -97
393 -99 589 -5 164 79 300 255 338 439 41 193 -18 409 -151 555 -65 72 -4325
3834 -4385 3873 -87 57 -202 92 -317 97 -54 2 -107 2 -118 -1z"/>
<path d="M4750 5024 c-36 -7 -101 -31 -145 -53 -73 -37 -261 -200 -2235 -1946
-1185 -1048 -2179 -1931 -2208 -1963 -95 -102 -161 -271 -162 -414 0 -31 6
-89 14 -130 44 -227 207 -412 430 -485 68 -22 99 -26 196 -26 100 -1 126 3
195 27 97 34 171 77 250 149 33 29 903 800 1934 1711 1493 1321 1877 1656
1891 1649 9 -4 873 -766 1919 -1693 1046 -927 1935 -1708 1976 -1737 110 -77
207 -106 355 -106 100 -1 126 3 195 27 202 70 341 209 411 411 24 69 28 95 27
195 0 97 -4 128 -27 197 -59 180 107 25 -2305 2160 -1998 1768 -2186 1932
-2262 1971 -135 69 -296 89 -449 56z"/>
</g>
</svg>
